<?xml version="1.0" encoding="iso-8859-1"?>
<!-- Generator: Adobe Illustrator 17.0.0, SVG Export Plug-In . SVG Version: 6.00 Build 0)  -->
<!DOCTYPE svg PUBLIC "-//W3C//DTD SVG 1.1//EN" "http://www.w3.org/Graphics/SVG/1.1/DTD/svg11.dtd">
<svg version="1.1" id="Layer_1" xmlns="http://www.w3.org/2000/svg" xmlns:xlink="http://www.w3.org/1999/xlink" x="0px" y="0px"
	 width="512px" height="512px" viewBox="0 0 512 512" style="enable-background:new 0 0 512 512;" xml:space="preserve">
<circle id="background_51_" style="fill:#45B39C;" cx="256" cy="256" r="256"/>
<g>
	<path style="fill:#ECF0F0;" d="M173.47,395.934c0,13.637,11.055,24.692,24.691,24.692h115.677
		c13.637,0,24.692-11.055,24.692-24.692v-3.423H173.47V395.934z"/>
	<path style="fill:#ECF0F0;" d="M338.53,115.198c0-13.637-11.055-24.692-24.692-24.692H198.162
		c-13.637,0-24.691,11.055-24.691,24.692v3.423h165.06V115.198z"/>
	<rect x="173.47" y="118.621" style="fill:#233540;" width="165.06" height="273.89"/>
	<path style="fill:#334D5C;" d="M187.074,383.441c-2.494,0-4.535-2.04-4.535-4.534V132.225c0-2.495,2.041-4.536,4.535-4.536h137.852
		c2.494,0,4.535,2.041,4.535,4.536v246.683c0,2.494-2.041,4.534-4.535,4.534H187.074z"/>
	<path style="fill:#ADB0B0;" d="M313.838,85.971H198.162c-16.115,0-29.226,13.112-29.226,29.227v280.736
		c0,16.115,13.111,29.227,29.226,29.227h115.677c16.115,0,29.226-13.111,29.226-29.227V115.198
		C343.064,99.083,329.953,85.971,313.838,85.971z M338.53,118.621v273.89v3.423c0,13.637-11.055,24.692-24.692,24.692H198.162
		c-13.637,0-24.691-11.055-24.691-24.692v-3.423v-273.89v-3.423c0-13.637,11.055-24.692,24.691-24.692h115.677
		c13.637,0,24.692,11.055,24.692,24.692V118.621z"/>
	<path style="fill:#FFFFFF;" d="M256,417.848c-6.219,0-11.28-5.06-11.28-11.28c0-6.219,5.061-11.279,11.28-11.279
		c6.219,0,11.28,5.06,11.28,11.279C267.28,412.789,262.219,417.848,256,417.848z"/>
	<circle style="fill:#ECF0F0;" cx="256" cy="406.568" r="9.684"/>
	
		<rect x="251.012" y="402.034" style="fill:none;stroke:#FFFFFF;stroke-width:0.9069;stroke-miterlimit:10;" width="9.977" height="9.976"/>
	<path style="fill:#ADB0B0;" d="M292.277,110.229c0,2.13-1.727,3.856-3.857,3.856h-63.933c-2.13,0-3.857-1.726-3.857-3.856v-0.449
		c0-2.13,1.727-3.856,3.857-3.856h63.933c2.13,0,3.857,1.726,3.857,3.856V110.229z"/>
	<circle style="fill:#ADB0B0;" cx="256" cy="97.988" r="3.854"/>
	<path style="opacity:0.1;fill:#D4D4D4;" d="M313.838,85.971H198.162c-10.703,0-20.078,5.788-25.168,14.395l2.334,5.432
		L310.58,420.625l1.948,4.535h1.31c16.115,0,29.226-13.111,29.226-29.227V115.198C343.064,99.083,329.953,85.971,313.838,85.971z"/>
</g>
<g>
</g>
<g>
</g>
<g>
</g>
<g>
</g>
<g>
</g>
<g>
</g>
<g>
</g>
<g>
</g>
<g>
</g>
<g>
</g>
<g>
</g>
<g>
</g>
<g>
</g>
<g>
</g>
<g>
</g>
</svg>
